<?xml version="1.0"?>
<svg xmlns="http://www.w3.org/2000/svg" xmlns:xlink="http://www.w3.org/1999/xlink" xmlns:svgjs="http://svgjs.com/svgjs" version="1.1" width="512" height="512" x="0" y="0" viewBox="0 0 512 512" style="enable-background:new 0 0 512 512" xml:space="preserve" class=""><g><g xmlns="http://www.w3.org/2000/svg"><path d="m466 346.003h-150c-24.51 0-46.31 11.82-60 30.06-13.69-18.24-35.49-30.06-60-30.06h-150c-8.28 0-15 6.72-15 15v15h125.79c35.092 0 70.003 6.951 99.21 26.42 29.198-19.464 64.104-26.42 99.21-26.42h125.79v-15c0-8.28-6.72-15-15-15z" fill="#355e87" data-original="#000000" style="" class=""/><g><path d="m227.847 456.11c-16.624-13.342-40.533-20.107-71.062-20.107h-141.785c-8.284 0-15-6.716-15-15s6.716-15 15-15h141.785c37.529 0 67.756 8.987 89.84 26.711 5.473 4.393 13.274 4.395 18.75 0 22.084-17.724 52.311-26.711 89.84-26.711h141.785c8.284 0 15 6.716 15 15s-6.716 15-15 15h-141.785c-30.529 0-54.438 6.765-71.063 20.107-16.335 13.112-39.793 13.253-56.305 0z" fill="#355e87" data-original="#000000" style="" class=""/></g><path d="m361 197.803v43.2c0 5.68-3.21 10.88-8.29 13.42l-66.34 33.16c-7.35 3.68-14.08 8.42-20 14.08-5.8 5.54-14.94 5.54-20.74 0-5.92-5.66-12.65-10.4-20-14.08l-66.34-33.16c-5.08-2.54-8.29-7.74-8.29-13.42v-43.2l92.64 26.47c7.919 2.265 16.513 2.348 24.72 0z" fill="#355e87" data-original="#000000" style="" class=""/><g><path d="m421 180.663v90.34c0 8.28-6.72 15-15 15s-15-6.72-15-15v-81.77z" fill="#355e87" data-original="#000000" style="" class=""/></g><g><path d="m251.879 195.426-210-60c-14.446-4.127-14.471-24.711 0-28.846l210-60c2.693-.77 5.548-.77 8.241 0l210 60c14.446 4.127 14.471 24.711 0 28.846l-210 60c-2.682.766-5.537.772-8.241 0z" fill="#355e87" data-original="#000000" style="" class=""/></g></g></g></svg>
