<svg id="Capa_1" enable-background="new 0 0 512 512" height="512" viewBox="0 0 512 512" width="512" xmlns="http://www.w3.org/2000/svg"><g><g><g><g><g><g><path d="m125.698 49.074c-1.297-2.464-3.852-4.007-6.637-4.007s-5.34 1.543-6.637 4.007l-78.541 149.236h16.95l68.228-129.639 68.229 129.639h16.95z" fill="#e8b800"/></g><g><path d="m111.561 35.34h15v162.97h-15z" fill="#fac600"/></g></g><g><g><path d="m402.015 49.074c-1.297-2.464-3.852-4.007-6.637-4.007s-5.34 1.543-6.637 4.007l-78.542 149.236h16.95l68.229-129.639 68.228 129.639h16.95z" fill="#e8b800"/></g><g><path d="m387.878 35.34h15v162.97h-15z" fill="#fac600"/></g><g><path d="m26.8 202.353 20.188 34.966c.601 1.04 1.711 1.681 2.912 1.681h138.323c1.201 0 2.311-.641 2.912-1.681l20.188-34.966c1.294-2.241-.324-5.043-2.912-5.043h-178.699c-2.588-.001-4.206 2.801-2.912 5.043z" fill="#ca6e59"/></g><g><path d="m94.487 237.319-20.188-34.966c-1.294-2.241.323-5.043 2.912-5.043h-47.499c-2.588 0-4.206 2.802-2.912 5.043l20.188 34.966c.601 1.04 1.711 1.681 2.912 1.681h47.499c-1.202 0-2.312-.641-2.912-1.681z" fill="#bb5d4c"/></g><g><path d="m303.117 202.353 20.188 34.966c.601 1.04 1.711 1.681 2.912 1.681h138.323c1.201 0 2.311-.641 2.912-1.681l20.188-34.966c1.294-2.241-.324-5.043-2.912-5.043h-178.699c-2.588-.001-4.206 2.801-2.912 5.043z" fill="#ca6e59"/></g><g><path d="m376.672 237.319-20.188-34.966c-1.294-2.241.323-5.043 2.912-5.043h-53.367c-2.588 0-4.206 2.802-2.912 5.043l20.188 34.966c.601 1.04 1.711 1.681 2.912 1.681h53.367c-1.202 0-2.312-.641-2.912-1.681z" fill="#bb5d4c"/></g></g></g><g><path d="m249.72 55.646v43.863h15v-43.863c-2.388.669-4.901 1.035-7.5 1.035s-5.112-.367-7.5-1.035z" fill="#883f2e"/></g><path d="m277.858 293.556v-189.896c0-2.845-2.306-5.151-5.151-5.151h-30.974c-2.845 0-5.151 2.306-5.151 5.151v189.896z" fill="#bb5d4c"/><path d="m254.06 293.556v-189.897c0-2.845 2.306-5.151 5.151-5.151h-17.479c-2.845 0-5.151 2.306-5.151 5.151v189.896h17.479z" fill="#a44f3e"/><g fill="#bb5d4c"><path d="m432.026 21.34h-148.001c.669 2.388 1.035 4.901 1.035 7.5s-.366 5.112-1.035 7.5h148.001c4.142 0 7.5-3.358 7.5-7.5s-3.358-7.5-7.5-7.5z"/><path d="m229.38 28.84c0-2.599.366-5.112 1.035-7.5h-148.001c-4.142 0-7.5 3.358-7.5 7.5s3.358 7.5 7.5 7.5h148.001c-.67-2.388-1.035-4.902-1.035-7.5z"/></g><g><circle cx="257.22" cy="28.84" fill="#883f2e" r="28.84"/></g><g><path d="m254.139 28.84c0-11.298 6.5-21.072 15.96-25.803-3.877-1.94-8.249-3.037-12.879-3.037-15.928 0-28.84 12.912-28.84 28.84s12.912 28.84 28.84 28.84c4.63 0 9.002-1.097 12.88-3.037-9.461-4.731-15.961-14.505-15.961-25.803z" fill="#6d3326"/></g></g><g><path d="m305.375 337.825v-24.666c0-11.379-9.225-20.604-20.604-20.604h-55.103c-11.379 0-20.604 9.225-20.604 20.604v24.666z" fill="#883f2e"/><path d="m243.827 337.825v-24.666c0-11.379 9.225-20.604 20.604-20.604h-34.763c-11.379 0-20.604 9.224-20.604 20.604v24.666z" fill="#6d3326"/><g><path d="m344.608 376.218v-21.736c0-9.752-7.905-17.657-17.657-17.657h-139.462c-9.752 0-17.657 7.905-17.657 17.657v21.736z" fill="#bb5d4c"/></g><g><path d="m213.277 376.218v-21.736c0-9.752 7.905-17.657 17.657-17.657h-43.445c-9.752 0-17.657 7.905-17.657 17.657v21.736z" fill="#a44f3e"/></g></g></g><g><g><path d="m74.542 462.519v-52.283c0-14.622 11.896-26.517 26.517-26.517v-1h-39.9c-29.635 0-53.659 24.024-53.659 53.659s24.024 53.659 53.659 53.659h39.9v-1c-14.622-.001-26.517-11.897-26.517-26.518z" fill="#3675bb"/><g><path d="m73.542 410.236v52.283c0 15.197 12.32 27.517 27.517 27.517h382.491v-107.318h-382.491c-15.198 0-27.517 12.32-27.517 27.518z" fill="#fff3de"/></g><g><path d="m127.119 464.275c-15.197 0-27.517-12.32-27.517-27.517v-52.283c0-.579.024-1.152.059-1.722-14.548.728-26.12 12.753-26.12 27.482v52.283c0 15.197 12.32 27.517 27.517 27.517h382.492v-25.76z" fill="#ffe5c2"/></g></g><g fill="#f6a96c"><path d="m483.55 409.615h-174.735c-4.142 0-7.5 3.358-7.5 7.5s3.358 7.5 7.5 7.5h174.735z"/><path d="m483.55 448.139h-174.735c-4.142 0-7.5 3.358-7.5 7.5s3.358 7.5 7.5 7.5h174.735z"/></g></g><g fill="#2263aa"><path d="m61.933 390.218h442.567c4.142 0 7.5-3.358 7.5-7.5 0-4.142-3.358-7.5-7.5-7.5h-442.413c-33.562 0-61.568 26.651-62.08 60.209-.521 34.156 27.112 62.108 61.151 62.108h52.052v-15h-52.051c-25.749 0-46.641-21.192-46.15-47.05.479-25.271 21.649-45.267 46.924-45.267z"/><path d="m167.477 482.536v15h337.023c4.142 0 7.5-3.358 7.5-7.5 0-4.142-3.358-7.5-7.5-7.5z"/></g><path d="m112.211 423.615v85.289c0 2.493 2.799 3.96 4.849 2.541l23.283-16.113 23.283 16.113c2.05 1.419 4.849-.048 4.849-2.541v-85.289z" fill="#fb2b3a"/><path d="m112.211 423.615v85.289c0 2.493 2.799 3.96 4.849 2.541l21.053-14.57v-73.261h-25.902z" fill="#e41f2d"/><g><path d="m241.397 424.615h-140.338c-4.142 0-7.5-3.358-7.5-7.5s3.358-7.5 7.5-7.5h140.338c4.142 0 7.5 3.358 7.5 7.5s-3.357 7.5-7.5 7.5z" fill="#f6a96c"/></g></g></svg>