<svg height="511pt" viewBox="1 0 511.99899 511" width="511pt" xmlns="http://www.w3.org/2000/svg"><path d="m103 147.644531h306.328125v322.171875h-306.328125zm0 0" fill="#bca98a"/><path d="m53.148438 113.972656 176.269531-71.296875 91.105469 11.882813 138.976562 90.148437v18.289063h-406.671875v-18.289063zm0 0" fill="#e0cfaf"/><path d="m472.546875 150.078125-216.378906-89.085937-216.382813 89.085937c-6.242187 2.570313-13.382812-.40625-15.953125-6.648437l-9.984375-24.242188c-2.566406-6.242188.410156-13.382812 6.648438-15.953125l226.765625-93.359375c5.703125-2.347656 12.105469-2.347656 17.808593 0l226.765626 93.359375c6.238281 2.570313 9.214843 9.710937 6.644531 15.953125l-9.980469 24.242188c-2.570312 6.242187-9.710938 9.21875-15.953125 6.648437zm0 0" fill="#fff5d7"/><path d="m155.355469 397.347656-46.921875 16.507813-46.921875-16.507813 7.539062-201.34375 39.382813-16.503906 39.382812 16.503906zm0 0" fill="#fff5d7"/><path d="m88.910156 196.003906v201.34375h-27.398437l7.539062-201.34375zm0 0" fill="#e0cfaf"/><path d="m147.820312 196.007812h-78.773437l-7.535156-33.011718h93.84375zm0 0" fill="#fff5d7"/><path d="m88.910156 196.003906h-19.859375l-7.539062-33.007812h24.5625zm0 0" fill="#e0cfaf"/><path d="m168.019531 430.359375h-119.171875l3.421875-33.011719h112.332031zm0 0" fill="#fff5d7"/><path d="m88.910156 397.347656-3.414062 33.011719h-36.648438l3.425782-33.011719zm0 0" fill="#e0cfaf"/><path d="m302.921875 397.347656-46.921875 16.507813-46.921875-16.507813 7.539063-201.34375 39.382812-16.503906 39.382812 16.503906zm0 0" fill="#fff5d7"/><path d="m236.472656 196.003906v201.34375h-27.394531l7.539063-201.34375zm0 0" fill="#e0cfaf"/><path d="m295.386719 196.007812h-78.773438l-7.535156-33.011718h93.84375zm0 0" fill="#fff5d7"/><path d="m236.472656 196.003906h-19.855468l-7.539063-33.007812h24.558594zm0 0" fill="#e0cfaf"/><path d="m315.585938 430.359375h-119.171876l3.421876-33.011719h112.328124zm0 0" fill="#fff5d7"/><path d="m236.476562 397.347656-3.414062 33.011719h-36.648438l3.425782-33.011719zm0 0" fill="#e0cfaf"/><path d="m450.488281 397.347656-46.921875 16.507813-46.921875-16.507813 7.539063-201.34375 39.382812-16.503906 39.382813 16.503906zm0 0" fill="#fff5d7"/><path d="m384.039062 196.003906v201.34375h-27.394531l7.539063-201.34375zm0 0" fill="#e0cfaf"/><path d="m442.953125 196.007812h-78.773437l-7.535157-33.011718h93.84375zm0 0" fill="#fff5d7"/><path d="m384.039062 196.003906h-19.855468l-7.539063-33.007812h24.558594zm0 0" fill="#e0cfaf"/><path d="m463.152344 430.359375h-119.171875l3.417969-33.011719h112.332031zm0 0" fill="#fff5d7"/><path d="m384.042969 397.347656-3.414063 33.011719h-36.648437l3.425781-33.011719zm0 0" fill="#e0cfaf"/><path d="m483.777344 458.589844h-455.554688v-16.667969c0-6.386719 5.175782-11.5625 11.5625-11.5625h432.429688c6.386718 0 11.558594 5.175781 11.558594 11.5625v16.667969zm0 0" fill="#e0cfaf"/><path d="m491.519531 503.148438h-471.039062c-7.113281 0-12.878907-5.765626-12.878907-12.878907v-18.800781c0-7.113281 5.765626-12.878906 12.878907-12.878906h471.039062c7.113281 0 12.878907 5.765625 12.878907 12.878906v18.800781c0 7.113281-5.765626 12.878907-12.878907 12.878907zm0 0" fill="#fff5d7"/><path d="m284.882812 114.964844c0 15.859375-12.859374 28.71875-28.71875 28.71875-15.859374 0-28.71875-12.859375-28.71875-28.71875s12.859376-28.71875 28.71875-28.71875c15.859376 0 28.71875 12.859375 28.71875 28.71875zm0 0" fill="#3e4c56"/><path d="m491.519531 450.992188h-.144531v-9.070313c0-10.566406-8.597656-19.160156-19.160156-19.160156h-2.210938l-2.714844-26.195313c-.402343-3.875-3.664062-6.816406-7.558593-6.816406h-1.921875l-7.226563-193.027344 5.964844-26.128906h2.949219c4.199218 0 7.601562-3.402344 7.601562-7.597656v-6.945313l2.554688 1.050781c2.4375 1.007813 4.992187 1.507813 7.550781 1.507813 2.582031 0 5.164063-.511719 7.621094-1.535156 4.886719-2.039063 8.6875-5.859375 10.695312-10.75l9.996094-24.253907c4.152344-10.109374-.691406-21.710937-10.792969-25.859374l-226.769531-93.371094c-7.59375-3.121094-15.96875-3.121094-23.582031.003906l-120.582032 49.648438c-3.882812 1.597656-5.734374 6.035156-4.136718 9.917968 1.601562 3.882813 6.039062 5.730469 9.921875 4.132813l120.574219-49.640625c3.824218-1.570313 8.210937-1.570313 12.023437-.003906l226.769531 93.367187c2.355469.96875 3.484375 3.671875 2.519532 6.023437l-9.992188 24.253907c-.46875 1.140625-1.351562 2.027343-2.492188 2.503906-1.136718.472656-2.390624.476563-3.535156.003906l-216.378906-89.082031c-1.855469-.761719-3.933594-.761719-5.785156 0l-216.394532 89.082031c-2.351562.972657-5.054687-.160156-6.023437-2.511719l-9.984375-24.25c-.46875-1.140624-.46875-2.394531.007812-3.535156.472657-1.136718 1.363282-2.019531 2.507813-2.492187l78.066406-32.148438c3.882813-1.597656 5.730469-6.039062 4.132813-9.917969-1.597656-3.882812-6.039063-5.730468-9.917969-4.132812l-78.0625 32.144531c-4.898437 2.011719-8.714844 5.8125-10.753906 10.699219-2.039063 4.890625-2.050781 10.277344-.03125 15.171875l9.980469 24.25c4.167968 10.105469 15.773437 14.9375 25.867187 10.773437l2.558594-1.050781v6.945313c0 4.195312 3.402343 7.597656 7.597656 7.597656h2.625l5.964844 26.113281-7.226563 193.042969h-1.921875c-3.894531 0-7.160156 2.941406-7.558593 6.816406l-2.714844 26.195313h-2.210938c-10.566406 0-19.160156 8.59375-19.160156 19.160156v9.070313h-.148438c-11.289062 0-20.476562 9.1875-20.476562 20.476562v18.800781c0 11.292969 9.1875 20.476563 20.476562 20.476563h317.179688c4.199219 0 7.601562-3.402344 7.601562-7.597656 0-4.195313-3.402343-7.597657-7.601562-7.597657h-317.179688c-2.910156 0-5.277343-2.371093-5.277343-5.28125v-18.800781c0-2.910156 2.367187-5.277344 5.277343-5.277344h471.046876c2.910156 0 5.277343 2.367188 5.277343 5.277344v18.800781c0 2.914063-2.367187 5.28125-5.277343 5.28125h-123.46875c-4.195313 0-7.597657 3.402344-7.597657 7.597657 0 4.195312 3.402344 7.597656 7.597657 7.597656h123.464843c11.292969 0 20.480469-9.183594 20.480469-20.476563v-18.800781c0-11.289062-9.1875-20.476562-20.480469-20.476562zm-169.082031-28.230469-2.714844-26.195313c-.398437-3.875-3.664062-6.816406-7.558594-6.816406h-1.921874l-7.222657-193.027344 5.960938-26.128906h41.601562l5.964844 26.132812-7.222656 193.023438h-1.925781c-3.894532 0-7.15625 2.941406-7.558594 6.816406l-2.710938 26.195313zm-33.109375-234.355469h-66.65625l-4.066406-17.8125h74.785156zm-65.394531 15.199219h64.132812l6.964844 186.144531h-78.0625zm-17.246094 201.339843h98.625l1.847656 17.816407h-102.320312zm147.566406 0h98.625l1.847656 17.816407h-102.320312zm10.28125-15.195312 6.964844-186.144531h64.132812l6.964844 186.144531zm72.355469-201.34375h-66.652344l-4.066406-17.8125h74.785156zm-180.722656-119.191406 195.730469 80.578125v5.601562h-391.46875v-5.601562zm-53.152344 101.378906 5.964844 26.132812-7.222657 193.023438h-1.925781c-3.894531 0-7.15625 2.941406-7.558593 6.816406l-2.714844 26.195313h-14.6875l-2.714844-26.195313c-.402344-3.875-3.664062-6.816406-7.558594-6.816406h-1.921875l-7.226562-193.046875 5.960937-26.109375zm-131.972656 0h74.78125l-4.066407 17.8125h-66.648437zm5.324219 33.011719h64.132812l6.964844 186.144531h-78.0625zm-17.246094 201.339843h98.625l1.847656 17.816407h-102.320312zm-23.296875 46.046876v-9.070313c0-2.183594 1.777343-3.960937 3.960937-3.960937h432.429688c2.183594 0 3.960937 1.777343 3.960937 3.960937v9.070313zm0 0"/><path d="m256.164062 151.28125c20.023438 0 36.316407-16.292969 36.316407-36.316406 0-20.027344-16.292969-36.316406-36.316407-36.316406-20.023437 0-36.316406 16.289062-36.316406 36.316406s16.292969 36.316406 36.316406 36.316406zm0-57.4375c11.644532 0 21.121094 9.476562 21.121094 21.121094 0 11.644531-9.476562 21.117187-21.121094 21.117187-11.644531 0-21.117187-9.472656-21.117187-21.117187 0-11.644532 9.472656-21.121094 21.117187-21.121094zm0 0"/></svg>