<?xml version="1.0"?>
<svg xmlns="http://www.w3.org/2000/svg" xmlns:xlink="http://www.w3.org/1999/xlink" xmlns:svgjs="http://svgjs.com/svgjs" version="1.1" width="512" height="512" x="0" y="0" viewBox="0 0 512.001 512.001" style="enable-background:new 0 0 512 512" xml:space="preserve" class=""><g>
<g xmlns="http://www.w3.org/2000/svg">
	<g>
		<g>
			<path d="M418.938,490.584c-48.353-82.342,30.252,53.03-43.109-73.441c-2.087-3.579-6.681-4.788-10.26-2.701     c-3.579,2.087-4.788,6.681-2.701,10.26c0,0.001,0.001,0.001,0.001,0.002c-0.001-0.002,0,0,0.006,0.011     c-0.001-0.001-0.001-0.002-0.002-0.004c0.006,0.011,0.011,0.019,0.017,0.029c0.002,0.003,0.004,0.006,0.005,0.009     c0.037,0.063,0.069,0.118,0.094,0.163c-0.022-0.038-0.044-0.075-0.063-0.109c0.03,0.052,0.075,0.129,0.135,0.233     c-0.005-0.008-0.01-0.016-0.015-0.025c0.012,0.02,0.021,0.036,0.028,0.049c0.006,0.01,0.013,0.022,0.019,0.032     c0.004,0.007,0.006,0.01,0.004,0.007c0.996,1.715,5.826,10.028,25.551,43.975c-11.326-1.432-20.924-4.755-28.492-15.451     l-43.606-61.631c6.462-15.878,10.547-9.991,19.646-13.025l9.032,15.487c1.394,2.391,3.906,3.724,6.487,3.724     c5.734,0,9.403-6.26,6.474-11.282l-9.974-17.103c12.988-17.337,14.64-52.554,33.14-57.837     c11.237-3.211,17.026-11.702,15.483-22.714c-4.369-31.195-74.219-86.628-93.974-14.931     c-28.015-13.533-45.89-50.188-49.823-58.912c0.449-6.645,7.743-30.13,1.093-53.741c33.91-4.66,76.638-18.627,70.562-52.277     c-0.821-4.552-1.919-9.268-3.259-14.013c-1.127-3.985-5.264-6.305-9.261-5.179c-3.986,1.127-6.306,5.272-5.18,9.261     c1.21,4.28,2.197,8.519,2.933,12.598c4.174,23.105-39.302,32.807-62.238,35.319c-3.557-4.804-9.992-10.492-15.972-15.276     c14.676-3.363,36.884-8.129,53.681-10.305c4.025-0.521,6.905-4.149,6.501-8.189c-1.778-17.414-7.793-46.117-19.24-60.053     c-4.41-5.371-12.275-18.305-13.927-23.71c-1.65-5.402-1.69-10.092-0.102-12.236c2.769-3.742,14.381-2.713,15.238-1.426     c1.995,2.761-0.751,16.351,6.553,29.251c0.651,1.154,6.574,8.405,13.951,22.589c1.913,3.677,6.444,5.105,10.117,3.193     c3.676-1.912,5.105-6.441,3.193-10.117c-14.134-27.175-16.69-20.207-17.798-38.745C289.359,13.445,288.557,0,267.191,0     c-20.467,0-28.846,14.437-22.805,34.217c2.354,7.699,11.149,22.113,16.683,28.85c8.191,9.972,12.96,31.728,14.977,44.902     c-20.1,3.119-44.012,8.577-55.962,11.423l-0.528-2.449c13.217-15.797,14.023-37.148,14.012-42.324     c1.011-4.365,4.34-21.08,0.066-36.216c-7.559-26.775-55.748-41.474-85.843-12.266c-11.064,10.848-16.912,26.488-16.912,45.234     c0,28.307,9.61,57.395,14.321,69.957c-12.449,7.003-26.794,16.451-38.368,27.879c-3.439,2.381-15.836,11.907-15.836,25.588     c0,13.977,15.841,41.724,36.438,57.219l-7.55,3.078c-6.908,2.8-10.766,10.116-9.173,17.4     c2.812,12.845,16.341,12.159,18.565,13.065c13.215,2.512,26.573-3.102,34.034-14.292c6.793-10.189,4.713-20.07,4.849-21.781     c-0.365-7.614-2.569-15.105-6.372-21.66c-4.481-7.73-10.922-18.226-17.299-26.489l27.956-13.577     c3.05,7.247,10.559,25.093,15.337,36.448c0.476,8.352,2.579,60.014-14.211,110.625c-1.616,4.869,2.031,9.866,7.121,9.866     c3.145,0,6.075-1.994,7.119-5.142c17.704-53.364,16.436-114.902,14.292-120.001l-10.169-24.165     c9.629-13.121,10.664-22.406,10.748-24.998c2.725-6.152,22.612-15.683,35.291-9.843c10.055,26.685-2.55,51.513,0.355,58.638     c0.851,2.09,21.262,51.334,58.633,68.946c-1.396,1.737-3.021,3.301-4.845,4.636c-12.046,8.815-18.413,20.412-18.413,33.533     c0,4.144,3.358,7.502,7.502,7.502s7.502-3.358,7.502-7.502c0-8.258,4.128-15.466,12.27-21.425     c7.815-5.72,13.34-14.054,15.555-23.47c5.294-22.511,14.778-27.237,21.803-27.237c16.594,0,41.716,23.37,43.646,37.154     c0.357,2.551,0.247,4.778-4.745,6.205c-33.993,9.712-29.988,67.621-48.602,67.621c-32.672,0-25.543,49.585-44.195,49.585     c-28.673,0-34.532,33.472-51.387,38.176c-2.96,0.824-4.675,0.538-8.768,0.734c-26.283,1.275-32.175,13.909-59.976,13.909     c-8.721,0-17.822-4.994-27.05-14.844c-4.493-4.795-6.804-11.048-6.505-17.606c0.898-19.693,18.455-16.037,42.738-61.762     c1.943-3.659,0.552-8.201-3.107-10.145c-3.658-1.943-8.199-0.552-10.145,3.107c-8.683,16.353-19.345,30.21-31.69,41.188     c-16.251,14.454-17.155,39.557-2.242,55.477c22.916,24.46,44.956,23.664,76.162,11.226c6.707,15.383,22.985,25.01,35.473,31.181     c9.611,4.744,20.717-2.58,20.197-13.226l-0.973-19.907l-0.454-18.845c9.571-11.325,15.188-23.66,27.726-23.66     c14.501,0,21.384-10.251,25.784-20.715l36.056,50.962c-0.517,6.758-0.598,22.809,8.452,34.704     c11.145,14.647,30.462,17.313,46.202,17.312c7.346,0,14.23,0.254,18.396-7.526C421.695,500.056,421.549,494.864,418.938,490.584z      M219.193,42.479c0.766,2.712,1.202,5.543,1.411,8.33c-3.013-2.892-6.175-5.331-9.076-7.312     c-8.493-5.795-20.224-3.692-26.151,4.689c-3.635,5.141-9.675,12.977-17.81,21.11c-9.208,9.208-12.037,22.67-10.724,35.493     c0.431,4.103,6.425,10.674,9.264,13.269l0.872,8.927c0.188,1.922-0.856,3.751-2.599,4.552c-1.742,0.802-3.682,1.719-5.774,2.743     c-4.515-12.433-12.726-38.399-12.726-62.912C145.881,13.41,212.212,17.742,219.193,42.479z M218.559,74.719     c-0.123,18.078-9.353,42.248-27.352,39.746c-5.409-0.751-14.669-5.242-19.547-12.775c-0.383-6.96,0.577-15.842,6.519-21.783     c8.881-8.883,15.479-17.442,19.45-23.058c1.227-1.737,3.669-2.169,5.442-0.958C209.091,59.999,216.577,66.569,218.559,74.719z      M184.794,178.422l-1.593-3.787c-1.672-3.973-6.334-5.712-10.192-3.838l-38.324,18.611c-7.066,3.431-9.044,12.569-4.027,18.642     c6.431,7.782,13.418,19.138,18.148,27.295c5.054,8.714,4.272,16.552,4.539,18.483c0.516,10.796-10.437,19.037-21.274,16.984     c-9.709-1.992-8.716-0.578,1.626-5.167c9.059-4.024,11.748-15.597,5.37-23.201c-0.359-0.397-0.819-1.103-1.833-1.843     c-18.511-13.481-31.238-38.139-31.238-45.81c0-7.22,10.288-13.829,10.918-14.457c13.753-13.753,33.254-25.428,50.679-33.731     c4.561,2.277,14.016,7.937,21.061,18.428C186.398,170.808,189.547,169.361,184.794,178.422z M198.802,153.446     c-6.178-8.091-13.329-13.616-18.952-17.123c1.363-2.665,2.118-5.646,2.144-8.732c8.051,2.773,16.518,2.9,24.405-0.485     c1.852,8.476,0.953,4.675,16.191,16.931C213.892,145.16,205.222,148.902,198.802,153.446z M216.893,469.595     c10.442-2.036,15.609,0.398,25.103-4.063c0.202,8.377-0.029,3.554,1.072,25.629C233.546,486.345,221.907,479.313,216.893,469.595     z M362.303,475.967c10.682,6.744,22.973,8.442,35.543,8.853l7.386,12.108C385.613,497.52,366.926,494.757,362.303,475.967z" fill="#424242" data-original="#000000" style=""/>
			<path d="M362.891,424.741c-0.006-0.011-0.011-0.019-0.015-0.026c0.01,0.017,0.029,0.049,0.052,0.089     c-0.013-0.022-0.023-0.04-0.031-0.054C362.894,424.747,362.892,424.744,362.891,424.741z" fill="#424242" data-original="#000000" style=""/>
			<path d="M363.076,425.061c-0.005-0.009-0.009-0.015-0.014-0.024c0.019,0.033,0.033,0.057,0.037,0.063     c-0.001-0.002-0.003-0.005-0.004-0.007C363.092,425.087,363.086,425.076,363.076,425.061z" fill="#424242" data-original="#000000" style=""/>
		</g>
	</g>
</g>
<g xmlns="http://www.w3.org/2000/svg">
</g>
<g xmlns="http://www.w3.org/2000/svg">
</g>
<g xmlns="http://www.w3.org/2000/svg">
</g>
<g xmlns="http://www.w3.org/2000/svg">
</g>
<g xmlns="http://www.w3.org/2000/svg">
</g>
<g xmlns="http://www.w3.org/2000/svg">
</g>
<g xmlns="http://www.w3.org/2000/svg">
</g>
<g xmlns="http://www.w3.org/2000/svg">
</g>
<g xmlns="http://www.w3.org/2000/svg">
</g>
<g xmlns="http://www.w3.org/2000/svg">
</g>
<g xmlns="http://www.w3.org/2000/svg">
</g>
<g xmlns="http://www.w3.org/2000/svg">
</g>
<g xmlns="http://www.w3.org/2000/svg">
</g>
<g xmlns="http://www.w3.org/2000/svg">
</g>
<g xmlns="http://www.w3.org/2000/svg">
</g>
</g></svg>
