<?xml version="1.0"?>
<svg xmlns="http://www.w3.org/2000/svg" xmlns:xlink="http://www.w3.org/1999/xlink" xmlns:svgjs="http://svgjs.com/svgjs" version="1.1" width="512" height="512" x="0" y="0" viewBox="0 0 512 512" style="enable-background:new 0 0 512 512" xml:space="preserve" class=""><g><path xmlns="http://www.w3.org/2000/svg" d="m184.832031 189.886719h6.550781c4.140626 0 7.5-3.359375 7.5-7.5s-3.359374-7.5-7.5-7.5h-2.179687v-15.507813c0-4.140625-3.355469-7.5-7.5-7.5-4.140625 0-7.5 3.359375-7.5 7.5v19.878906c0 5.859376 4.769531 10.628907 10.628906 10.628907zm0 0" fill="#424242" data-original="#000000" style="" class=""/><path xmlns="http://www.w3.org/2000/svg" d="m219.542969 215.101562c2.214843-3.5 1.171875-8.132812-2.328125-10.347656-3.5-2.21875-8.132813-1.175781-10.347656 2.324219-4.210938 6.65625-13.394532 10.953125-23.394532 10.953125s-19.183594-4.296875-23.394531-10.953125c-2.214844-3.5-6.84375-4.539063-10.347656-2.324219-3.5 2.214844-4.539063 6.847656-2.328125 10.347656 7 11.058594 20.820312 17.929688 36.070312 17.929688s29.070313-6.871094 36.070313-17.929688zm0 0" fill="#424242" data-original="#000000" style="" class=""/><path xmlns="http://www.w3.org/2000/svg" d="m228.984375 157.441406c4.144531 0 7.5-3.355468 7.5-7.5v-9.054687c0-4.144531-3.355469-7.5-7.5-7.5-4.140625 0-7.5 3.355469-7.5 7.5v9.054687c0 4.144532 3.359375 7.5 7.5 7.5zm0 0" fill="#424242" data-original="#000000" style="" class=""/><path xmlns="http://www.w3.org/2000/svg" d="m137.953125 133.386719c-4.140625 0-7.5 3.355469-7.5 7.5v9.054687c0 4.144532 3.359375 7.5 7.5 7.5 4.144531 0 7.5-3.355468 7.5-7.5v-9.054687c0-4.144531-3.355469-7.5-7.5-7.5zm0 0" fill="#424242" data-original="#000000" style="" class=""/><path xmlns="http://www.w3.org/2000/svg" d="m468.480469 421.257812c-4.140625 0-7.5 3.359376-7.5 7.5v52.757813c0 8.539063-6.945313 15.484375-15.484375 15.484375h-175.90625c-8.539063 0-15.484375-6.945312-15.484375-15.484375v-52.757813c0-4.140624-3.359375-7.5-7.5-7.5s-7.5 3.359376-7.5 7.5v52.757813c0 5.648437 1.542969 10.945313 4.234375 15.484375h-20.332032l-15.789062-128.3125 7-18.632812 11.621094 7.0625c2.480468 1.507812 5.246094 2.230468 7.984375 2.230468 4.855469 0 9.636719-2.269531 12.628906-6.453125l29.277344-40.949219c13.566406 4.222657 26.878906 9.390626 39.730469 15.421876-.757813 1.964843-1.167969 4.078124-1.167969 6.28125v14.523437h-44.703125c-16.453125 0-30.117188 13.390625-30.457032 29.847656-.003906.101563-.003906.203125 0 .300781.285157 14.679688 6.214844 28.433594 16.691407 38.730469 10.5 10.3125 24.386719 15.992188 39.101562 15.992188h31.046875v.566406c0 6.375 5.1875 11.5625 11.5625 11.5625h40.015625c6.375 0 11.5625-5.1875 11.5625-11.5625v-.566406h31.046875c14.71875 0 28.605469-5.679688 39.101563-15.992188 10.480469-10.296875 16.410156-24.050781 16.691406-38.730469.003906-.097656.003906-.199218 0-.296874-.335937-16.460938-14-29.851563-30.457031-29.851563h-44.703125v-14.523437c0-10.226563-8.890625-18.546876-19.820313-18.546876h-46.859375c-2.476562 0-4.851562.425782-7.039062 1.207032-16.351563-8.039063-33.464844-14.730469-50.945313-19.921875l-26.445312-19.484375c-6.210938-4.574219-14.121094-5.335938-20.855469-2.394532v-12.535156c7.261719-5.1875 13.746094-11.144531 19.65625-17.042968 16.238281-16.210938 31.328125-35.039063 31.785156-62.808594.003907-.046875.003907-.097656.003907-.144532l-.011719-3.59375c15.789062 0 28.636719-12.851562 28.636719-28.652343v-10.003907c0-5.804687-1.738282-11.214843-4.714844-15.734374v-54.453126c0-7.578124-2.605469-14.902343-7.273438-20.757812 2.421875-6.761719 3.738282-14.046875 3.738282-21.628906v-17.027344c.003906-5.582031-4.539063-10.125-10.121094-10.125h-158.355469c-22.375 0-40.976563 16.027344-44.730469 37.46875-14.25 3.945312-24.683594 17.003906-24.683594 32.070312v54.449219c-2.980468 4.519531-4.71875 9.929688-4.71875 15.738281v10.003907c0 15.796875 12.851563 28.652343 28.640626 28.652343h.320312l.011719 4.25c0 .050782.003906.101563.003906.152344.648437 27.746094 15.871094 46.46875 32.21875 62.566406 5.707031 5.621094 11.941406 11.289063 18.875 16.273438v12.871094c-6.730469-2.929688-14.628906-2.167969-20.832031 2.402344l-26.429688 19.472656c-18.824218 5.59375-37.222656 12.917968-54.699218 21.792968-22.296876 11.316407-36.148438 33.882813-36.148438 58.886719v24.113281c0 4.144532 3.359375 7.5 7.5 7.5s7.5-3.355468 7.5-7.5v-24.113281c0-19.324219 10.703125-36.765625 27.9375-45.511719 15.464844-7.851562 31.683594-14.433593 48.289062-19.601562l29.28125 40.953125c2.988282 4.1875 7.769532 6.457031 12.625 6.457031 2.742188 0 5.507813-.726562 7.988282-2.230468l11.664062-7.085938 6.9375 18.644531-15.789062 128.324219h-73.378906v-59.546875c0-4.144531-3.359376-7.5-7.5-7.5-4.140626 0-7.5 3.355469-7.5 7.5v59.546875h-36.214844c-2.394532 0-4.339844-1.945312-4.339844-4.339844v-56.523437c0-4.140625-3.359375-7.5-7.5-7.5s-7.5 3.359375-7.5 7.5v56.523437c0 10.664063 8.675781 19.339844 19.339844 19.339844h426.15625c16.808594 0 30.484375-13.675781 30.484375-30.484375v-52.757813c0-4.140624-3.359375-7.5-7.5-7.5zm-94.367188 8.914063h-33.140625v-9.261719h33.140625zm6.859375-100.070313c2.613282 0 4.820313 1.625 4.820313 3.546876v14.523437h-25.507813c-3.28125-6.75-7.664062-12.851563-12.941406-18.070313zm-51.679687 4.535157c5.394531 3.609375 10.035156 8.207031 13.6875 13.535156h-13.6875zm116.203125 28.535156c8.308594 0 15.210937 6.722656 15.457031 15.015625-.511719 21.992188-18.777344 39.855469-40.792969 39.855469h-31.046875v-.570313c0-6.375-5.1875-11.5625-11.5625-11.5625h-40.015625c-6.375 0-11.5625 5.1875-11.5625 11.5625v.570313h-31.046875c-22.015625 0-40.28125-17.863281-40.792969-39.851563.246094-8.296875 7.152344-15.019531 15.457032-15.019531zm-212.285156-73.890625c2.160156-1.875 5.273437-2 7.574218-.304688l21.566406 15.890626-28.097656 39.300781c-.144531.199219-.417968.253906-.625.128906l-37.488281-22.773437zm-49.730469 42.101562 17.625 10.707032-6.765625 18.1875h-21.738282l-6.761718-18.175782zm0-18.730468-30.371094-26.410156v-15.703126c9.101563 4.269532 19.273437 7.003907 30.773437 7.101563h.0625.113282c11.101562-.171875 20.945312-2.785156 29.769531-6.859375v15.480469zm110.417969-172.925782v10.003907c0 7.527343-6.117188 13.652343-13.636719 13.652343h-.046875l-.113282-37.3125h.160157c7.519531.003907 13.636719 6.125 13.636719 13.65625zm-4.714844-70.1875v42.957032c-2.808594-.921875-5.808594-1.421875-8.921875-1.421875h-1.570313c-2.546875-10.042969-8.429687-18.820313-16.421875-25.027344 10.535157-4.671875 19.59375-12.085937 26.261719-21.335937.429688 1.558593.652344 3.183593.652344 4.828124zm-202.503906 93.84375c-7.519532 0-13.640626-6.125-13.640626-13.652343v-10.003907c0-7.527343 6.121094-13.652343 13.640626-13.652343h.160156l.113281 37.308593zm-8.921876-50.886718v-42.957032c0-9.4375 7.527344-17.441406 17.136719-18.226562 3.773438-.308594 6.726563-3.382812 6.882813-7.167969.675781-16.339843 14.027344-29.144531 30.394531-29.144531h153.480469v12.152344c0 27.226562-22.152344 49.375-49.375 49.375h-103.671875c-9.128907 0-16.613281 7.191406-17.082031 16.207031-2.371094 10.496094-11.390626 18.335937-21.210938 18.335937 0 .003907-13.746094.503907-16.554688 1.425782zm52 122.167968c-14.085937-13.871093-27.191406-29.789062-27.746093-52.15625l-.175781-57.304687c13.863281-3.226563 25.402343-15.113281 28.515624-30.09375.597657-2.859375 1.09375-3.582031 2.253907-3.582031h103.667969.398437c15.917969 1.242187 28.367187 14.636718 28.414063 30.660156l.1875 59.757812c-.398438 22.394532-13.398438 38.402344-27.386719 52.367188-14.511719 14.488281-31.089844 27.941406-53.96875 28.328125-22.859375-.230469-39.539063-13.578125-54.160157-27.976563zm3.578126 109.632813c-.210938.125-.484376.070313-.625-.128906l-28.101563-39.300781 21.566406-15.890626c2.300781-1.695312 5.417969-1.570312 7.574219.304688l37.070312 32.238281zm25.710937 152.703125 14.976563-121.722656h18.894531l14.976562 121.722656zm0 0" fill="#424242" data-original="#000000" style="" class=""/></g></svg>
