<?xml version="1.0"?>
<svg xmlns="http://www.w3.org/2000/svg" xmlns:xlink="http://www.w3.org/1999/xlink" xmlns:svgjs="http://svgjs.com/svgjs" version="1.1" width="512" height="512" x="0" y="0" viewBox="0 0 512 512" style="enable-background:new 0 0 512 512" xml:space="preserve" class=""><g><g xmlns="http://www.w3.org/2000/svg"><g><path d="m494.771 442.192h-15.115v-14.635c0-19.098-15.562-34.635-34.689-34.635h-131.952c-19.128 0-34.689 15.537-34.689 34.635v14.635h-15.144c-9.484 0-17.2 7.709-17.2 17.184v34.873c0 9.49 7.716 17.212 17.2 17.212h70.894c5.523 0 10-4.478 10-10s-4.477-10-10-10h-68.094v-29.269h226.018v29.269h-68.094c-5.523 0-10 4.478-10 10s4.477 10 10 10h70.866c9.5 0 17.229-7.722 17.229-17.212v-34.873c-.001-9.475-7.73-17.184-17.23-17.184zm-196.445-14.635c0-8.069 6.59-14.635 14.689-14.635h131.952c8.1 0 14.689 6.565 14.689 14.635v14.635h-161.33z" fill="#355e87" data-original="#000000" style="" class=""/><path d="m450.778 347.075c-5.523 0-10 4.478-10 10s4.477 10 10 10h47.026c5.523 0 10-4.478 10-10s-4.477-10-10-10z" fill="#355e87" data-original="#000000" style="" class=""/><path d="m441.791 323.672c1.733 3.553 5.292 5.618 8.995 5.618 1.471 0 2.966-.326 4.377-1.015l40.762-19.884c4.964-2.421 7.025-8.408 4.604-13.371-2.421-4.964-8.408-7.024-13.372-4.604l-40.762 19.884c-4.965 2.422-7.026 8.41-4.604 13.372z" fill="#355e87" data-original="#000000" style="" class=""/><path d="m231.222 299.584c5.56-.001 11.122-2.112 15.354-6.336l18.424-18.383c2.265.741 4.62 1.133 6.98 1.133 4.174 0 8.341-1.171 11.976-3.487 15.01 5.741 25.174 15.914 30.881 30.914-3.091 4.873-4.757 10.602-4.762 16.657-.007 9.029 3.759 17.969 10.333 24.528 6.868 6.853 15.794 10.312 24.523 10.312 8.058 0 15.948-2.949 21.89-8.897l86.87-86.677c5.75-5.718 8.92-13.479 8.928-21.855.007-9.029-3.759-17.969-10.333-24.528-11.508-11.482-28.801-13.435-41.25-5.547-15.037-5.692-25.237-15.824-30.993-30.787 5.485-8.586 4.497-20.158-2.995-27.678-.007-.007-.014-.015-.021-.021l-63.148-63.007c-7.51-7.449-19.09-8.436-27.707-2.974-15.008-5.741-25.171-15.914-30.878-30.912 3.354-5.283 5.008-11.537 4.719-18.149-.376-8.61-4.03-16.791-10.29-23.037-13.207-13.18-34.033-13.809-46.412-1.418l-86.911 86.69c-5.733 5.722-8.891 13.483-8.891 21.856 0 9.025 3.767 17.961 10.336 24.517 6.848 6.833 15.765 10.285 24.496 10.285 5.894 0 11.7-1.581 16.729-4.749 15.047 5.689 25.253 15.822 31.014 30.788-3.614 5.682-4.394 12.655-2.351 18.911l-18.411 18.37c-4.101 4.093-6.359 9.544-6.359 15.353 0 2.664.497 5.245 1.407 7.662l-85.233 85.042c-.103.095-.212.182-.312.283-.092.092-.171.192-.258.286l-35.155 35.076c-.101.094-.207.179-.306.277-.088.089-.164.185-.249.276l-30.631 30.563c-7.884 7.869-12.226 18.359-12.226 29.538s4.343 21.668 12.219 29.527c8.147 8.147 18.854 12.221 29.567 12.221 10.708-.001 21.421-4.071 29.581-12.213l66.347-66.2c.103-.095.211-.182.311-.282.092-.092.171-.192.258-.286l85.247-85.058c2.474.932 5.08 1.416 7.692 1.416zm-100.289 62.724-30.856-30.788 77.075-76.903 30.856 30.788zm-35.705 35.625-30.866-30.778 21.556-21.508 30.856 30.788zm332.519-175.253c3.623 0 7.476 1.511 10.413 4.441 2.837 2.831 4.462 6.604 4.459 10.354-.002 3.019-1.079 5.75-3.042 7.702l-86.894 86.7c-4.523 4.528-12.834 3.877-18.148-1.426-2.837-2.83-4.462-6.604-4.459-10.354.002-3.018 1.078-5.749 3.039-7.701.018-.018.036-.036.054-.055l86.801-86.607c.016-.016.032-.031.048-.047 2.023-2.019 4.8-3.007 7.729-3.007zm-32.579-.45-65.512 65.366c-6.831-13.125-16.864-23.157-30.019-29.982l45.731-45.629 19.77-19.725c6.834 13.133 16.882 23.15 30.03 29.97zm-97.013-122.774c.594 0 1.184.216 1.617.646l63.111 62.97c.86.869.869 2.318.017 3.168l-89.319 89.121c-.872.868-2.357.859-3.223 0l-63.106-62.967c-.87-.873-.869-2.348-.02-3.2l89.271-89.071c.448-.447 1.052-.667 1.652-.667zm-166.183 28.883c-2.837-2.83-4.463-6.605-4.463-10.358 0-3.022 1.072-5.757 3.017-7.697l86.922-86.701c4.525-4.528 12.835-3.874 18.148 1.426 2.704 2.697 4.279 6.16 4.436 9.752.143 3.262-.932 6.215-3.015 8.301-.019.019-.039.039-.058.058l-86.785 86.592c-.017.017-.036.033-.053.05-4.558 4.502-12.86 3.856-18.149-1.423zm42.992 4.891 65.512-65.366c6.828 13.12 16.856 23.148 30.001 29.973l-65.492 65.346c-6.836-13.125-16.88-23.136-30.021-29.953zm8.485 97.03 16.72-16.682 48.969 48.861-16.687 16.65c-.665.664-1.79.665-2.457 0l-46.544-46.441c-.402-.4-.486-.87-.486-1.193-.001-.325.083-.794.485-1.195zm-126.207 205.575c-8.526 8.506-22.379 8.51-30.888 0-4.097-4.087-6.354-9.548-6.354-15.376 0-5.829 2.256-11.291 6.354-15.379l23.851-23.798 30.866 30.778z" fill="#355e87" data-original="#000000" style="" class=""/><path d="m378.977 491.46c-5.523 0-10 4.478-10 10s4.477 10 10 10h.057c5.523 0 9.972-4.478 9.972-10s-4.506-10-10.029-10z" fill="#355e87" data-original="#000000" style="" class=""/></g></g></g></svg>
