<svg id="Capa_1" enable-background="new 0 0 512.001 512.001" height="512" viewBox="0 0 512.001 512.001" width="512" xmlns="http://www.w3.org/2000/svg"><g><g><g><path d="m400.676 320.711v129.182h-87.036v-120.344z" fill="#808080"/><path d="m375.114 430.665c-10.311-16.248-10.311-36.99 0-53.238l-147.524-25.714h-184.467v98.181h255.203z" fill="#f6f6f6"/><path d="m400.673 26.726v331.471l-327.746 7.932-18.753.539-46.319 37.375v-331.471c0-35.88 29.192-65.072 65.072-65.072h308.529c10.616 0 19.217 8.61 19.217 19.226z" fill="#808080"/><path d="m72.927 7.5v358.629l-18.753.539-46.319 37.375v-331.471c0-35.88 29.192-65.072 65.072-65.072z" fill="#595959"/><path d="m381.454 469.115h-308.527c-35.879 0-65.069-29.19-65.069-65.069s29.19-65.069 65.069-65.069h308.527c10.616 0 19.222 8.606 19.222 19.222s-8.606 19.222-19.222 19.222h-308.527c-14.681 0-26.626 11.944-26.626 26.626s11.945 26.626 26.626 26.626h308.527c10.616 0 19.222 8.606 19.222 19.222 0 10.614-8.606 19.22-19.222 19.22z" fill="#595959"/><path d="m164.557 377.426v114.791c0 10.226-11.783 15.956-19.83 9.641l-15.308-12.007c-4.434-3.475-10.687-3.475-15.134 0l-15.308 12.007c-8.046 6.315-19.817.585-19.817-9.641v-114.791z" fill="#ffe07d"/><path d="m79.159 377.426h85.398v47.308h-85.398z" fill="#ffd064"/></g><g><path d="m255.595 257.189h-31.718v-195.412c0-8.759 7.1-15.859 15.859-15.859 8.759 0 15.859 7.1 15.859 15.859z" fill="#ffd064"/><path d="m316.38 86.223h-153.288c-11.624 0-21.048 9.423-21.048 21.048 0 11.624 9.423 21.048 21.048 21.048h34.549c0 23.249 18.847 42.095 42.095 42.095s42.095-18.847 42.095-42.095h34.549c11.624 0 21.048-9.423 21.048-21.048 0-11.624-9.424-21.048-21.048-21.048z" fill="#ffe07d"/><path d="m128.988 184.481c0 18.835 15.269 34.105 34.105 34.105s34.105-15.269 34.105-34.105z" fill="#ffe07d"/><circle cx="239.736" cy="128.101" fill="#ffd064" r="14.901"/><path d="m291.092 272.972h-102.712c-8.717 0-15.784-7.067-15.784-15.784 0-8.717 7.067-15.784 15.784-15.784h102.712c8.717 0 15.784 7.067 15.784 15.784 0 8.718-7.067 15.784-15.784 15.784z" fill="#ffe07d"/></g><g><g><path d="m504.142 273.58v127.77c0 22.11-6.4 43.74-18.43 62.28v.01c-7.45 11.48-11.41 24.86-11.41 38.54v2.32h-157.15v-8.99c0-9.15-3.64-17.93-10.11-24.4l-106.54-106.53c-6.46-6.46-9.69-14.92-9.69-23.38 0-8.47 3.23-16.92 9.69-23.38 12.92-12.91 33.84-12.91 46.75 0l29.94 29.94v-138.72c0-8.22 3.34-15.65 8.72-21.04s12.83-8.72 21.04-8.72c16.43 0 29.75 13.33 29.75 29.76v-25.49c0-16.5 13.5-30.41 30.01-30.28 8.12.07 15.45 3.38 20.79 8.71 5.38 5.39 8.71 12.83 8.71 21.04v30.74c0-16.43 13.32-29.75 29.75-29.75 8.22 0 15.66 3.33 21.04 8.71 5.39 5.39 8.71 12.82 8.71 21.04v59.82c0-6.69 2.71-12.75 7.1-17.13 4.38-4.38 10.44-7.09 17.12-7.09 13.37 0 24.21 10.84 24.21 24.22z" fill="#ffddce"/></g><g><path d="m455.717 343.763v-70.191c0-13.379 10.84-24.219 24.211-24.219 1.952 0 3.849.237 5.668.674-10.636 2.552-18.544 12.12-18.544 23.545v58.856c0 6.26-5.075 11.335-11.335 11.335z" fill="#ffcbbe"/></g><g fill="#ffcbbe"><path d="m314.03 180.141c-5.368 1.31-10.17 4.072-13.952 7.862-5.383 5.383-8.718 12.82-8.718 21.04v145.61h-7.274l-6.894-6.894v-138.717c0-8.219 3.335-15.657 8.718-21.04 5.383-5.39 12.828-8.718 21.04-8.718 2.442.001 4.809.298 7.08.857z"/><path d="m336.7 314.293v-131.271c0-8.219 3.335-15.657 8.718-21.04 5.383-5.39 12.828-8.718 21.04-8.718 2.442 0 4.81.298 7.08.856-5.368 1.31-10.17 4.072-13.952 7.862-5.383 5.383-8.718 12.82-8.718 21.04v117.103c0 7.825-6.343 14.168-14.168 14.168z"/><path d="m396.208 315.223v-101.461c0-8.219 3.335-15.657 8.718-21.04 5.383-5.39 12.828-8.718 21.04-8.718 2.442 0 4.81.298 7.08.856-5.368 1.31-10.17 4.072-13.952 7.862-5.383 5.383-8.718 12.82-8.718 21.04v87.293c0 7.825-6.343 14.168-14.168 14.168z"/></g><g><path d="m356.752 479.22v25.28h-39.6v-8.99c0-9.15-3.63-17.92-10.11-24.39l-106.54-106.54c-6.45-6.46-9.68-14.91-9.68-23.38 0-8.46 3.23-16.92 9.68-23.38 2.87-2.86 6.12-5.08 9.6-6.68-1.99 4.36-2.99 9.06-2.99 13.76 0 8.47 3.23 16.93 9.69 23.38l129.84 106.54c6.47 6.47 10.11 15.25 10.11 24.4z" fill="#ffcbbe"/></g></g></g><g><path d="m262.138 128.101c0-12.352-10.049-22.401-22.401-22.401s-22.401 10.049-22.401 22.401 10.049 22.401 22.401 22.401 22.401-10.049 22.401-22.401zm-29.803 0c0-4.081 3.32-7.401 7.401-7.401s7.401 3.32 7.401 7.401-3.32 7.401-7.401 7.401-7.401-3.32-7.401-7.401z"/><path d="m479.932 241.86c-6.003 0-11.751 1.656-16.72 4.75v-32.85c0-9.954-3.873-19.309-10.907-26.344-7.034-7.033-16.39-10.906-26.343-10.906-6.438 0-12.496 1.647-17.784 4.534v-154.324c0-14.733-11.986-26.72-26.72-26.72h-244.6c-4.143 0-7.5 3.358-7.5 7.5s3.357 7.5 7.5 7.5h244.6c6.462 0 11.72 5.258 11.72 11.72v130.349c-.127-.131-.248-.268-.378-.398-6.959-6.945-16.2-10.816-26.028-10.901-.099-.001-.194-.001-.292-.001-9.729 0-18.95 3.838-25.993 10.826-.742.736-1.448 1.502-2.124 2.293l-11.318-25.144c10.472-4.234 17.883-14.501 17.883-26.473 0-15.741-12.807-28.548-28.548-28.548h-53.288v-16.943c0-6.24-2.432-12.108-6.847-16.523-4.408-4.409-10.272-6.837-16.514-6.837-12.875 0-23.35 10.479-23.35 23.36v16.943h-53.29c-15.741 0-28.547 12.806-28.547 28.548 0 11.971 7.41 22.238 17.881 26.473l-19.458 43.238h-3.98c-4.143 0-7.5 3.358-7.5 7.5 0 22.941 18.664 41.605 41.604 41.605 22.941 0 41.605-18.664 41.605-41.605 0-4.142-3.357-7.5-7.5-7.5h-3.98l-18.525-41.163h16.016c2.391 15.701 12.175 29.002 25.675 36.239v61.852h-28c-6.222 0-12.068 2.421-16.454 6.807-4.408 4.392-6.836 10.242-6.836 16.473 0 12.837 10.448 23.28 23.29 23.28h81.31v49.183l-17.136-17.136c-15.808-15.807-41.536-15.81-57.357 0-5.316 5.317-8.972 11.847-10.716 18.963h-104.056v-316.48h26.432c4.143 0 7.5-3.358 7.5-7.5s-3.357-7.5-7.5-7.5h-33.931s0 0-.001 0h-.001c-40.014.001-72.567 32.555-72.567 72.57v331.48c0 39.583 31.869 71.844 71.297 72.528v15.64c0 7.624 4.259 14.433 11.115 17.768 6.855 3.335 14.84 2.485 20.839-2.221l15.31-12.01c1.73-1.356 4.145-1.357 5.875 0l15.31 12.009c3.57 2.801 7.844 4.236 12.164 4.236 2.939 0 5.9-.664 8.676-2.015 6.856-3.335 11.115-10.144 11.115-17.768v-15.607h129.867c4.911 5.013 7.726 11.883 7.726 18.9v8.99c0 4.142 3.357 7.5 7.5 7.5s7.5-3.358 7.5-7.5v-8.99c0-11.056-4.485-21.882-12.307-29.703l-106.539-106.53c-4.833-4.833-7.494-11.252-7.494-18.077 0-6.824 2.661-13.244 7.492-18.074 9.97-9.962 26.185-9.963 36.145-.002l29.939 29.94c2.146 2.144 5.369 2.786 8.174 1.626 2.803-1.161 4.63-3.896 4.63-6.929v-138.721c0-5.934 2.318-11.524 6.527-15.741 4.197-4.204 9.784-6.519 15.732-6.519 12.265 0 22.244 9.98 22.25 22.249 0 .005-.001.009-.001.014v105.25c0 4.142 3.357 7.5 7.5 7.5s7.5-3.358 7.5-7.5l.001-130.743c0-6.044 2.497-11.988 6.85-16.307 4.213-4.179 9.687-6.474 15.427-6.474.056 0 .113 0 .17.001 5.87.051 11.396 2.366 15.546 6.509 4.204 4.211 6.519 9.802 6.519 15.742l-.004 63.65c0 4.142 3.357 7.5 7.5 7.5s7.5-3.358 7.5-7.5v-32.833c0-.026.004-.051.004-.077 0-12.269 9.981-22.25 22.25-22.25 5.947 0 11.536 2.313 15.736 6.513 4.2 4.201 6.514 9.79 6.514 15.737l.004 130.003c0 4.142 3.357 7.5 7.5 7.5s7.5-3.358 7.5-7.5v-70.187c0-.013-.002-.025-.002-.037.011-4.456 1.747-8.638 4.901-11.785 3.155-3.155 7.352-4.893 11.816-4.893 9.214 0 16.71 7.5 16.71 16.72v127.77c0 20.709-5.955 40.834-17.222 58.198-.054.083-.105.167-.156.252-8.154 12.666-12.462 27.313-12.462 42.38v2.32c0 4.142 3.357 7.5 7.5 7.5s7.5-3.358 7.5-7.5v-2.32c0-12.258 3.527-24.173 10.201-34.457.054-.082.105-.166.155-.25 12.747-19.746 19.483-42.604 19.483-66.123v-127.772c0-17.49-14.225-31.72-31.71-31.72zm-464.573-169.29c0-29.201 21.858-53.376 50.068-57.065v32.508c-20.353 2.099-38.226 12.653-50.068 28.07zm0 47.474c.077-29.133 21.906-53.231 50.068-56.914v34.86c-20.353 2.099-38.226 12.653-50.068 28.07zm0 49.977c.077-29.133 21.906-53.231 50.068-56.913v103.707c-20.353 2.099-38.226 12.653-50.068 28.07zm0 118.825c.077-29.133 21.906-53.231 50.068-56.913v34.859c-20.353 2.099-38.226 12.653-50.068 28.07zm0 49.976c.077-29.133 21.906-53.231 50.068-56.914v49.958c-20.353 2.1-38.227 12.655-50.068 28.073zm0 65.228c0-31.744 25.825-57.57 57.569-57.57h110.734c1.143 8.831 5.132 16.998 11.538 23.404l.036.036h-122.308c-18.819 0-34.13 15.311-34.13 34.13 0 18.387 14.626 33.415 32.857 34.088v23.44c-31.156-.682-56.296-26.216-56.296-57.528zm156.7-19.13h38.178l38.253 38.25h-76.432v-38.25zm-100.403 38.186c-9.954-.66-17.857-8.942-17.857-19.055 0-10.119 7.903-18.406 17.857-19.066zm82.725 73.392c-.806.392-2.908 1.122-5.02-.535l-15.31-12.009c-3.591-2.817-7.893-4.225-12.195-4.225s-8.605 1.409-12.195 4.225l-15.31 12.01c-2.115 1.659-4.214.927-5.02.535-.805-.392-2.677-1.593-2.677-4.28v-107.299h70.403v107.298c.002 2.687-1.87 3.888-2.676 4.28zm17.678-58.328h91.433l23.442 23.44h-114.875zm59.323-376.39c0-4.61 3.746-8.36 8.35-8.36 2.233 0 4.331.867 5.906 2.443 1.583 1.582 2.454 3.684 2.454 5.917v16.943h-16.71zm-68.29 149.306c-12.067 0-22.283-8.074-25.528-19.105h.253 50.552.253c-3.246 11.031-13.463 19.105-25.53 19.105zm-13.676-34.105 13.676-30.388 13.677 30.388zm55.725-48.662c0-4.142-3.357-7.5-7.5-7.5h-34.549c-7.47 0-13.547-6.077-13.547-13.548s6.077-13.548 13.547-13.548h153.288c7.471 0 13.548 6.077 13.548 13.548s-6.077 13.548-13.548 13.548h-34.549c-4.143 0-7.5 3.358-7.5 7.5 0 19.076-15.52 34.595-34.595 34.595-19.076 0-34.595-15.519-34.595-34.595zm26.241 48.88c2.718.463 5.507.715 8.354.715 2.848 0 5.637-.252 8.355-.715v56.712h-16.71v-56.712zm-43 88.271c-4.571 0-8.29-3.714-8.29-8.28 0-2.213.86-4.29 2.434-5.857 1.562-1.562 3.642-2.423 5.856-2.423h81.31v16.56zm92.221-82.768c-7.036 7.05-10.911 16.403-10.911 26.338v24.87h-6.6v-61.853c13.499-7.237 23.281-20.538 25.673-36.238h16.017l-19.211 42.71c-1.755 1.235-3.421 2.623-4.968 4.173zm26.348-10.922c-.643 0-1.283.018-1.92.05l11.35-25.232 13.491 29.971c-.177.923-.325 1.852-.432 2.787-6.252-4.753-14.046-7.576-22.489-7.576z"/><path d="m396.208 269.17c-4.143 0-7.5 3.358-7.5 7.5v38.55c0 4.142 3.357 7.5 7.5 7.5s7.5-3.358 7.5-7.5v-38.55c0-4.142-3.357-7.5-7.5-7.5z"/></g></g></svg>