<svg id="Capa_1" enable-background="new 0 0 512 512" height="512" viewBox="0 0 512 512" width="512" xmlns="http://www.w3.org/2000/svg"><g><g><g><path d="m152.766 412.34c0 39.765 18.883 58.885 18.883 58.885h-40.981c-3.317 0-6.439-1.576-8.355-4.275-5.45-7.654-15.453-25.662-15.453-54.61 0-28.958 10.003-46.966 15.453-54.62 1.916-2.699 5.038-4.275 8.355-4.275h40.981s-18.883 19.12-18.883 58.895z" fill="#fb3a82"/><path d="m171.649 353.445s-18.348 18.574-18.873 57.206l-38.446 41.64c-3.987-9.591-7.469-22.86-7.469-39.95 0-28.958 10.003-46.966 15.453-54.62 1.916-2.699 5.038-4.275 8.355-4.275h40.98z" fill="#fb1466"/><path d="m468.407 412.335c0 22.903 8.189 43.681 21.468 58.892h-328.526s-18.885-19.121-18.885-58.892 18.885-58.892 18.885-58.892h328.526c-13.279 15.211-21.468 35.989-21.468 58.892z" fill="#e0d3ce"/><g fill="#cdbfbb"><path d="m205.583 353.445-62.779 68.002c-.216-2.905-.34-5.944-.34-9.107 0-39.775 18.883-58.895 18.883-58.895z"/><path d="m468.409 412.34c0 22.905 8.189 43.676 21.469 58.889h-38.928c-13.279-15.213-21.469-35.985-21.469-58.889 0-22.905 8.189-43.691 21.469-58.889h38.928c-13.28 15.198-21.469 35.984-21.469 58.889z"/></g></g><g><g><path d="m511.99 342.453c0 4.718-1.916 8.994-5.007 12.084s-7.366 5.007-12.084 5.007h-326.619c-9.436 0-17.091-7.654-17.091-17.091 0-4.718 1.916-9.004 5.007-12.094 3.091-3.091 7.366-5.007 12.084-5.007h326.619c9.437 0 17.091 7.654 17.091 17.101z" fill="#fb3a82"/><g fill="#fb1466"><path d="m231.513 325.352-31.554 34.192h-31.679c-9.436 0-17.091-7.654-17.091-17.091 0-4.718 1.916-9.004 5.007-12.094 3.091-3.091 7.366-5.007 12.084-5.007z"/><path d="m512 342.446c0 4.72-1.92 9-5.005 12.085-3.1 3.099-7.379 5.019-12.099 5.019h-33.156c4.72 0 9-1.92 12.085-5.019 3.085-3.085 5.005-7.365 5.005-12.085 0-9.441-7.649-17.09-17.09-17.09h33.156c9.441 0 17.104 7.649 17.104 17.09z"/></g></g><g><path d="m494.898 499.315h-326.617c-9.441 0-17.095-7.654-17.095-17.095 0-9.441 7.654-17.095 17.095-17.095h326.618c9.441 0 17.095 7.654 17.095 17.095-.001 9.441-7.654 17.095-17.096 17.095z" fill="#fb3a82"/><path d="m512 482.219c0 4.72-1.92 9-5.005 12.085-3.1 3.085-7.379 5.005-12.099 5.005h-33.156c4.72 0 9-1.919 12.085-5.005 3.085-3.085 5.005-7.365 5.005-12.085 0-9.44-7.649-17.089-17.09-17.089h33.156c9.441 0 17.104 7.649 17.104 17.089z" fill="#fb1466"/></g></g><g><g><path d="m306.386 394.662c0 4.265-3.451 7.726-7.726 7.726h-155.784c.464-5.656 1.319-10.807 2.4-15.453h153.384c4.275.001 7.726 3.462 7.726 7.727z" fill="#cdbfbb"/></g><g><path d="m471.905 386.936c-1.411 4.965-2.421 10.137-2.977 15.453h-106.603c-4.265 0-7.726-3.461-7.726-7.726s3.462-7.726 7.726-7.726h109.58z" fill="#cdbfbb"/></g><g><path d="m388.434 437.486h-180c-4.267 0-7.726-3.459-7.726-7.726s3.459-7.726 7.726-7.726h180c4.268 0 7.726 3.459 7.726 7.726s-3.459 7.726-7.726 7.726z" fill="#cdbfbb"/></g></g></g><g><g><g><path d="m225.035 301.997-27.598-27.598-187.867 173.428c-12.415 11.461-12.804 30.947-.857 42.895 11.947 11.947 31.434 11.558 42.895-.857z" fill="#873f30"/><path d="m50.778 490.732c-11.551 11.551-30.403 11.649-42.061-.009-3.449-3.449-5.865-7.523-7.255-11.854 10.304 3.351 22.06.9 30.189-7.229.285-.285.57-.588.847-.882l173.432-187.871 19.11 19.11-173.433 187.87c-.277.294-.553.588-.829.865z" fill="#6c3328"/></g><path d="m252.212 209.008-63.549 75.805 25.96 25.96 75.805-63.549z" fill="#873f30"/><path d="m252.212 209.008-20.535 24.495 6.162 6.162c4.535 4.535 4.535 11.888 0 16.423l-38.95 38.95 15.734 15.734 75.804-63.549z" fill="#6c3328"/><g><path d="m198.297 326.339-25.2-25.2c-7.285-7.285-7.285-19.097 0-26.383 7.285-7.285 19.097-7.285 26.383 0l25.2 25.2c7.285 7.285 7.285 19.097 0 26.383-7.285 7.285-19.097 7.285-26.383 0z" fill="#ba5d4f"/><path d="m224.673 326.338c-3.645 3.645-8.423 5.464-13.183 5.464-4.777 0-9.555-1.818-13.2-5.464l-19.101-19.101c3.645 3.645 8.423 5.464 13.191 5.455 4.769.009 9.546-1.809 13.192-5.455 7.291-7.291 7.282-19.101 0-26.383l19.101 19.101c7.29 7.291 7.291 19.092 0 26.383z" fill="#a34f41"/></g></g><g><g><path d="m229.638 45.568h79.143v124.252h-79.143z" fill="#ba5d4f" transform="matrix(.707 .707 -.707 .707 155.001 -158.817)"/></g><g><path d="m352.17 168.1h79.143v124.252h-79.143z" fill="#a34f41" transform="matrix(-.707 -.707 .707 -.707 505.95 670.024)"/></g></g><g><path d="m181.552 142.881-1.944-1.944c-7.37-7.37-7.37-19.32 0-26.691l96.153-96.153c7.37-7.37 19.32-7.37 26.691 0l1.944 1.944c7.37 7.37 7.37 19.32 0 26.691l-96.153 96.153c-7.371 7.37-19.32 7.37-26.691 0z" fill="#873f30"/><path d="m356.555 317.884 1.944 1.944c7.37 7.37 19.32 7.37 26.691 0l96.153-96.153c7.37-7.37 7.37-19.32 0-26.691l-1.944-1.944c-7.37-7.37-19.32-7.37-26.691 0l-96.153 96.153c-7.37 7.371-7.37 19.32 0 26.691z" fill="#6c3328"/><g><path d="m286.037 75.132h88.877v187.657h-88.877z" fill="#fcc16d" transform="matrix(.707 .707 -.707 .707 216.267 -184.194)"/><path d="m252.165 161.987h187.657v44.984h-187.657z" fill="#fca62f" transform="matrix(.707 -.707 .707 .707 -29.107 298.688)"/><path d="m365.683 68.508-15.395-6.294c-5.277-2.158-11.334-.938-15.366 3.093l-108.1 108.101c-4.032 4.032-5.251 10.088-3.093 15.366l6.294 15.395c2.552 6.242 10.639 7.87 15.408 3.102l123.354-123.356c4.768-4.769 3.14-12.855-3.102-15.407z" fill="#873f30"/><path d="m430.928 133.753 6.294 15.395c2.158 5.277.938 11.334-3.093 15.366l-108.101 108.1c-4.032 4.032-10.088 5.251-15.366 3.093l-15.395-6.294c-6.242-2.552-7.87-10.639-3.102-15.408l123.354-123.354c4.771-4.768 12.857-3.14 15.409 3.102z" fill="#6c3328"/></g></g></g></g></svg>